<svg viewBox="6 -905 1598 960" xmlns="http://www.w3.org/2000/svg">
        <style>
        rect {
            stroke: hsl(0, 100%, 80%);
            fill: hsl(0, 100%, 90%);
        }
        rect.red {
            stroke: hsl(0, 100%, 80%);
            fill: hsl(0, 100%, 90%);
        }
        rect.yellow {
            stroke: hsl(60, 100%, 80%);
            fill: hsl(60, 100%, 90%);
        }
        rect.green {
            stroke: hsl(120, 100%, 80%);
            fill: hsl(120, 100%, 90%);
        }
        rect.blue {
            stroke: hsl(180, 100%, 80%);
            fill: hsl(180, 100%, 90%);
        }
        rect.purple {
            stroke: hsl(240, 100%, 80%);
            fill: hsl(240, 100%, 90%);
        }
        rect.pink {
            stroke: hsl(300, 100%, 80%);
            fill: hsl(300, 100%, 90%);
        }

        rect.base {
            stroke: hsl(60, 100%, 80%);
            fill: hsl(60, 100%, 90%);
        }
        text {
            font-family: Garamond, sans-serif;
            font-size: 14pt;
        }
        
        </style>
          <rect fill="white" stroke="gray" x="492" y="-250" width="142" height="99" rx="4" ry="4" class="box-generic"></rect>  <rect fill="white" stroke="gray" x="651" y="-500" width="943" height="49" rx="4" ry="4" class="box-generic"></rect>  <rect fill="white" stroke="gray" x="170" y="-750" width="145" height="399" rx="4" ry="4" class="box-generic"></rect>  <rect fill="white" stroke="gray" x="15" y="-350" width="944" height="99" rx="4" ry="4" class="box-generic"></rect>  <rect fill="white" stroke="gray" x="336" y="-750" width="135" height="199" rx="4" ry="4" class="box-generic"></rect>  <rect fill="white" stroke="gray" x="333" y="-550" width="459" height="49" rx="4" ry="4" class="box-generic"></rect>  <rect fill="white" stroke="gray" x="18" y="-850" width="1579" height="49" rx="4" ry="4" class="box-generic"></rect>  <rect fill="white" stroke="gray" x="14" y="-800" width="1577" height="49" rx="4" ry="4" class="box-generic"></rect>  <rect fill="white" stroke="gray" x="15" y="-900" width="1576" height="49" rx="4" ry="4" class="box-generic"></rect>  <rect fill="white" stroke="gray" x="11" y="-50" width="146" height="49" rx="4" ry="4" class="box-generic"></rect>  <rect fill="white" stroke="gray" x="13" y="0" width="1585" height="49" rx="4" ry="4" class="base"></rect>  <rect fill="white" stroke="gray" x="13" y="-100" width="1420" height="49" rx="4" ry="4" class="box-generic"></rect>  <rect fill="white" stroke="gray" x="813" y="-50" width="779" height="49" rx="4" ry="4" class="box-generic"></rect>  <rect fill="white" stroke="gray" x="1139" y="-400" width="459" height="299" rx="4" ry="4" class="box-generic"></rect>  <rect fill="white" stroke="gray" x="1451" y="-100" width="148" height="49" rx="4" ry="4" class="box-generic"></rect>  <rect fill="white" stroke="gray" x="13" y="-150" width="1102" height="49" rx="4" ry="4" class="box-generic"></rect>  <rect fill="white" stroke="gray" x="1294" y="-450" width="301" height="49" rx="4" ry="4" class="box-generic"></rect>  <rect fill="white" stroke="gray" x="814" y="-450" width="464" height="49" rx="4" ry="4" class="box-generic"></rect>  <rect fill="white" stroke="gray" x="972" y="-400" width="140" height="249" rx="4" ry="4" class="box-generic"></rect>  <text x="496" y="-250" width="100" class="box-generic"><tspan x="496" dy="20">11. The</tspan><tspan x="496" dy="20">Algorithm</tspan><tspan x="496" dy="20">Method</tspan></text>  <text x="655" y="-500" width="100" class="box-generic"><tspan x="655" dy="20">10. The Fourth Dimension</tspan></text>  <text x="174" y="-750" width="100" class="box-generic"><tspan x="174" dy="20">13. Number</tspan><tspan x="174" dy="20">Mash-Ups</tspan></text>  <text x="19" y="-350" width="100" class="box-generic"><tspan x="19" dy="20">12. How to</tspan><tspan x="19" dy="20">Build a</tspan><tspan x="19" dy="20">Computer</tspan></text>  <text x="340" y="-750" width="100" class="box-generic"><tspan x="340" dy="20">15. Higher</tspan><tspan x="340" dy="20">Dimensions</tspan></text>  <text x="337" y="-550" width="100" class="box-generic"><tspan x="337" dy="20">14. Ridiculous</tspan><tspan x="337" dy="20">Shapes</tspan></text>  <text x="22" y="-850" width="100" class="box-generic"><tspan x="22" dy="20">17. Ridiculous</tspan><tspan x="22" dy="20">Numbers</tspan></text>  <text x="18" y="-800" width="100" class="box-generic"><tspan x="18" dy="20">16. Good Data Die Hard</tspan></text>  <text x="19" y="-900" width="100" class="box-generic"><tspan x="19" dy="20">18. To Infinity</tspan><tspan x="19" dy="20">and Beyond</tspan></text>  <text x="15" y="-50" width="100" class="box-generic"><tspan x="15" dy="20">1. Can you</tspan><tspan x="15" dy="20">digit?</tspan></text>  <text x="17" y="0" width="100" class="base"><tspan x="17" dy="20"></tspan></text>  <text x="17" y="-100" width="100" class="box-generic"><tspan x="17" dy="20">3. Be There and Be Square</tspan></text>  <text x="817" y="-50" width="100" class="box-generic"><tspan x="817" dy="20">2. Making Shapes</tspan></text>  <text x="1143" y="-400" width="100" class="box-generic"><tspan x="1143" dy="20">5. Shapes: Now in 3D</tspan></text>  <text x="1455" y="-100" width="100" class="box-generic"><tspan x="1455" dy="20">4. Shape</tspan><tspan x="1455" dy="20">Shifting</tspan></text>  <text x="17" y="-150" width="100" class="box-generic"><tspan x="17" dy="20">7. Prime Time</tspan></text>  <text x="1298" y="-450" width="100" class="box-generic"><tspan x="1298" dy="20">6. Pack it Up,</tspan><tspan x="1298" dy="20">Pack it In</tspan></text>  <text x="818" y="-450" width="100" class="box-generic"><tspan x="818" dy="20">9. Just for Graphs</tspan></text>  <text x="976" y="-400" width="100" class="box-generic"><tspan x="976" dy="20">8. Knot a</tspan><tspan x="976" dy="20">Problem</tspan></text></svg>
