<svg viewBox="11 -355 1271 410" xmlns="http://www.w3.org/2000/svg">
        <style>
        rect {
            stroke: hsl(0, 100%, 80%);
            fill: hsl(0, 100%, 90%);
        }
        rect.red {
            stroke: hsl(0, 100%, 80%);
            fill: hsl(0, 100%, 90%);
        }
        rect.yellow {
            stroke: hsl(60, 100%, 80%);
            fill: hsl(60, 100%, 90%);
        }
        rect.green {
            stroke: hsl(120, 100%, 80%);
            fill: hsl(120, 100%, 90%);
        }
        rect.blue {
            stroke: hsl(180, 100%, 80%);
            fill: hsl(180, 100%, 90%);
        }
        rect.purple {
            stroke: hsl(240, 100%, 80%);
            fill: hsl(240, 100%, 90%);
        }
        rect.pink {
            stroke: hsl(300, 100%, 80%);
            fill: hsl(300, 100%, 90%);
        }

        rect.base {
            stroke: hsl(60, 100%, 80%);
            fill: hsl(60, 100%, 90%);
        }
        text {
            font-family: Garamond, sans-serif;
            font-size: 14pt;
        }
        
        </style>
          <rect fill="white" stroke="gray" x="1137" y="-350" width="136" height="49" rx="4" ry="4" class="purple"></rect>  <rect fill="white" stroke="gray" x="333" y="-100" width="465" height="49" rx="4" ry="4" class="pink"></rect>  <rect fill="white" stroke="gray" x="491" y="-350" width="621" height="49" rx="4" ry="4" class="purple"></rect>  <rect fill="white" stroke="gray" x="175" y="-200" width="142" height="199" rx="4" ry="4" class="red"></rect>  <rect fill="white" stroke="gray" x="336" y="-200" width="616" height="49" rx="4" ry="4" class="purple"></rect>  <rect fill="white" stroke="gray" x="651" y="-250" width="139" height="49" rx="4" ry="4" class="purple"></rect>  <rect fill="white" stroke="gray" x="16" y="0" width="1261" height="49" rx="4" ry="4" class="base"></rect>  <rect fill="white" stroke="gray" x="335" y="-50" width="936" height="49" rx="4" ry="4" class="purple"></rect>  <rect fill="white" stroke="gray" x="971" y="-300" width="303" height="149" rx="4" ry="4" class="purple"></rect>  <rect fill="white" stroke="gray" x="812" y="-150" width="463" height="99" rx="4" ry="4" class="purple"></rect>  <rect fill="white" stroke="gray" x="171" y="-300" width="462" height="99" rx="4" ry="4" class="purple"></rect>  <rect fill="white" stroke="gray" x="173" y="-350" width="301" height="49" rx="4" ry="4" class="purple"></rect>  <text x="1141" y="-350" width="100" class="purple"><tspan x="1141" dy="20">CS 110</tspan></text>  <text x="337" y="-100" width="100" class="pink"><tspan x="337" dy="20">Engr 40M</tspan></text>  <text x="495" y="-350" width="100" class="purple"><tspan x="495" dy="20">CS 221</tspan></text>  <text x="179" y="-200" width="100" class="red"><tspan x="179" dy="20">Math 51</tspan></text>  <text x="340" y="-200" width="100" class="purple"><tspan x="340" dy="20">CS 103</tspan></text>  <text x="655" y="-250" width="100" class="purple"><tspan x="655" dy="20">CS 154</tspan></text>  <text x="20" y="0" width="100" class="base"><tspan x="20" dy="20"></tspan></text>  <text x="339" y="-50" width="100" class="purple"><tspan x="339" dy="20">CS 106A</tspan></text>  <text x="975" y="-300" width="100" class="purple"><tspan x="975" dy="20">CS 107/E</tspan></text>  <text x="816" y="-150" width="100" class="purple"><tspan x="816" dy="20">CS 106B/X</tspan></text>  <text x="175" y="-300" width="100" class="purple"><tspan x="175" dy="20">CS 109</tspan></text>  <text x="177" y="-350" width="100" class="purple"><tspan x="177" dy="20">CS 161</tspan></text></svg>
