<svg viewBox="5 -355 792 410" xmlns="http://www.w3.org/2000/svg">
        <style>
        rect {
            stroke: hsl(0, 100%, 80%);
            fill: hsl(0, 100%, 90%);
        }
        rect.red {
            stroke: hsl(0, 100%, 80%);
            fill: hsl(0, 100%, 90%);
        }
        rect.yellow {
            stroke: hsl(60, 100%, 80%);
            fill: hsl(60, 100%, 90%);
        }
        rect.green {
            stroke: hsl(120, 100%, 80%);
            fill: hsl(120, 100%, 90%);
        }
        rect.blue {
            stroke: hsl(180, 100%, 80%);
            fill: hsl(180, 100%, 90%);
        }
        rect.purple {
            stroke: hsl(240, 100%, 80%);
            fill: hsl(240, 100%, 90%);
        }
        rect.pink {
            stroke: hsl(300, 100%, 80%);
            fill: hsl(300, 100%, 90%);
        }

        rect.base {
            stroke: hsl(60, 100%, 80%);
            fill: hsl(60, 100%, 90%);
        }
        text {
            font-family: Garamond, sans-serif;
            font-size: 14pt;
        }
        
        </style>
          <rect fill="white" stroke="gray" x="653" y="-350" width="139" height="49" rx="4" ry="4" class="purple"></rect>  <rect fill="white" stroke="gray" x="172" y="-100" width="141" height="49" rx="4" ry="4" class="pink"></rect>  <rect fill="white" stroke="gray" x="177" y="-350" width="462" height="49" rx="4" ry="4" class="purple"></rect>  <rect fill="white" stroke="gray" x="11" y="-200" width="141" height="199" rx="4" ry="4" class="red"></rect>  <rect fill="white" stroke="gray" x="176" y="-200" width="300" height="49" rx="4" ry="4" class="purple"></rect>  <rect fill="white" stroke="gray" x="331" y="-250" width="140" height="49" rx="4" ry="4" class="purple"></rect>  <rect fill="white" stroke="gray" x="11" y="0" width="300" height="49" rx="4" ry="4" class="base"></rect>  <rect fill="white" stroke="gray" x="178" y="-50" width="301" height="49" rx="4" ry="4" class="purple"></rect>  <rect fill="white" stroke="gray" x="490" y="-300" width="302" height="149" rx="4" ry="4" class="purple"></rect>  <rect fill="white" stroke="gray" x="332" y="-150" width="302" height="99" rx="4" ry="4" class="purple"></rect>  <rect fill="white" stroke="gray" x="18" y="-300" width="297" height="99" rx="4" ry="4" class="purple"></rect>  <rect fill="white" stroke="gray" x="10" y="-350" width="140" height="49" rx="4" ry="4" class="purple"></rect>  <text x="657" y="-350" width="100" class="purple"><tspan x="657" dy="20">CS 110</tspan></text>  <text x="176" y="-100" width="100" class="pink"><tspan x="176" dy="20">Engr 40M</tspan></text>  <text x="181" y="-350" width="100" class="purple"><tspan x="181" dy="20">CS 221</tspan></text>  <text x="15" y="-200" width="100" class="red"><tspan x="15" dy="20">Math 51</tspan></text>  <text x="180" y="-200" width="100" class="purple"><tspan x="180" dy="20">CS 103</tspan></text>  <text x="335" y="-250" width="100" class="purple"><tspan x="335" dy="20">CS 154</tspan></text>  <text x="15" y="0" width="100" class="base"><tspan x="15" dy="20"></tspan></text>  <text x="182" y="-50" width="100" class="purple"><tspan x="182" dy="20">CS 106A</tspan></text>  <text x="494" y="-300" width="100" class="purple"><tspan x="494" dy="20">CS 107/E</tspan></text>  <text x="336" y="-150" width="100" class="purple"><tspan x="336" dy="20">CS 106B/X</tspan></text>  <text x="22" y="-300" width="100" class="purple"><tspan x="22" dy="20">CS 109</tspan></text>  <text x="14" y="-350" width="100" class="purple"><tspan x="14" dy="20">CS 161</tspan></text></svg>
