<svg viewBox="8 -1505 1435 1560" xmlns="http://www.w3.org/2000/svg">
        <style>
        rect {
            stroke: hsl(0, 100%, 80%);
            fill: hsl(0, 100%, 90%);
        }
        rect.red {
            stroke: hsl(0, 100%, 80%);
            fill: hsl(0, 100%, 90%);
        }
        rect.yellow {
            stroke: hsl(60, 100%, 80%);
            fill: hsl(60, 100%, 90%);
        }
        rect.green {
            stroke: hsl(120, 100%, 80%);
            fill: hsl(120, 100%, 90%);
        }
        rect.blue {
            stroke: hsl(180, 100%, 80%);
            fill: hsl(180, 100%, 90%);
        }
        rect.purple {
            stroke: hsl(240, 100%, 80%);
            fill: hsl(240, 100%, 90%);
        }
        rect.pink {
            stroke: hsl(300, 100%, 80%);
            fill: hsl(300, 100%, 90%);
        }

        rect.base {
            stroke: hsl(60, 100%, 80%);
            fill: hsl(60, 100%, 90%);
        }
        text {
            font-family: Garamond, sans-serif;
            font-size: 14pt;
        }
        
        </style>
          <rect fill="white" stroke="gray" x="812" y="-1500" width="302" height="49" rx="4" ry="4" class="box-generic"></rect>  <rect fill="white" stroke="gray" x="177" y="-200" width="134" height="49" rx="4" ry="4" class="box-generic"></rect>  <rect fill="white" stroke="gray" x="973" y="-1050" width="139" height="99" rx="4" ry="4" class="box-generic"></rect>  <rect fill="white" stroke="gray" x="174" y="-250" width="139" height="49" rx="4" ry="4" class="box-generic"></rect>  <rect fill="white" stroke="gray" x="170" y="-400" width="309" height="49" rx="4" ry="4" class="box-generic"></rect>  <rect fill="white" stroke="gray" x="13" y="-300" width="146" height="299" rx="4" ry="4" class="box-generic"></rect>  <rect fill="white" stroke="gray" x="175" y="-100" width="144" height="49" rx="4" ry="4" class="box-generic"></rect>  <rect fill="white" stroke="gray" x="331" y="-600" width="140" height="99" rx="4" ry="4" class="box-generic"></rect>  <rect fill="white" stroke="gray" x="657" y="-850" width="299" height="149" rx="4" ry="4" class="box-generic"></rect>  <rect fill="white" stroke="gray" x="814" y="-1450" width="140" height="99" rx="4" ry="4" class="box-generic"></rect>  <rect fill="white" stroke="gray" x="174" y="-150" width="137" height="49" rx="4" ry="4" class="box-generic"></rect>  <rect fill="white" stroke="gray" x="1136" y="-700" width="143" height="99" rx="4" ry="4" class="box-generic"></rect>  <rect fill="white" stroke="gray" x="1137" y="-400" width="139" height="99" rx="4" ry="4" class="box-generic"></rect>  <rect fill="white" stroke="gray" x="971" y="-100" width="139" height="99" rx="4" ry="4" class="box-generic"></rect>  <rect fill="white" stroke="gray" x="1135" y="-800" width="303" height="99" rx="4" ry="4" class="box-generic"></rect>  <rect fill="white" stroke="gray" x="332" y="-450" width="141" height="49" rx="4" ry="4" class="box-generic"></rect>  <rect fill="white" stroke="gray" x="339" y="-700" width="456" height="99" rx="4" ry="4" class="box-generic"></rect>  <rect fill="white" stroke="gray" x="18" y="-350" width="295" height="49" rx="4" ry="4" class="box-generic"></rect>  <rect fill="white" stroke="gray" x="337" y="-350" width="302" height="299" rx="4" ry="4" class="box-generic"></rect>  <rect fill="white" stroke="gray" x="653" y="-600" width="145" height="599" rx="4" ry="4" class="box-generic"></rect>  <rect fill="white" stroke="gray" x="979" y="-300" width="291" height="99" rx="4" ry="4" class="box-generic"></rect>  <rect fill="white" stroke="gray" x="973" y="-600" width="465" height="99" rx="4" ry="4" class="box-generic"></rect>  <rect fill="white" stroke="gray" x="812" y="-700" width="147" height="699" rx="4" ry="4" class="box-generic"></rect>  <rect fill="white" stroke="gray" x="970" y="-800" width="143" height="199" rx="4" ry="4" class="box-generic"></rect>  <rect fill="white" stroke="gray" x="814" y="-1350" width="136" height="499" rx="4" ry="4" class="box-generic"></rect>  <rect fill="white" stroke="gray" x="977" y="-1250" width="135" height="99" rx="4" ry="4" class="box-generic"></rect>  <rect fill="white" stroke="gray" x="337" y="-500" width="142" height="49" rx="4" ry="4" class="box-generic"></rect>  <rect fill="white" stroke="gray" x="491" y="-50" width="144" height="49" rx="4" ry="4" class="box-generic"></rect>  <rect fill="white" stroke="gray" x="330" y="-50" width="142" height="49" rx="4" ry="4" class="box-generic"></rect>  <rect fill="white" stroke="gray" x="1298" y="-700" width="133" height="99" rx="4" ry="4" class="box-generic"></rect>  <rect fill="white" stroke="gray" x="171" y="-50" width="147" height="49" rx="4" ry="4" class="box-generic"></rect>  <rect fill="white" stroke="gray" x="971" y="-400" width="142" height="99" rx="4" ry="4" class="box-generic"></rect>  <rect fill="white" stroke="gray" x="970" y="-900" width="302" height="99" rx="4" ry="4" class="box-generic"></rect>  <rect fill="white" stroke="gray" x="973" y="-1450" width="145" height="49" rx="4" ry="4" class="box-generic"></rect>  <rect fill="white" stroke="gray" x="979" y="-1400" width="138" height="99" rx="4" ry="4" class="box-generic"></rect>  <rect fill="white" stroke="gray" x="15" y="0" width="1097" height="49" rx="4" ry="4" class="base"></rect>  <rect fill="white" stroke="gray" x="970" y="-200" width="141" height="99" rx="4" ry="4" class="box-generic"></rect>  <rect fill="white" stroke="gray" x="972" y="-500" width="303" height="99" rx="4" ry="4" class="box-generic"></rect>  <rect fill="white" stroke="gray" x="976" y="-950" width="138" height="49" rx="4" ry="4" class="box-generic"></rect>  <rect fill="white" stroke="gray" x="973" y="-1150" width="143" height="99" rx="4" ry="4" class="box-generic"></rect>  <rect fill="white" stroke="gray" x="176" y="-300" width="139" height="49" rx="4" ry="4" class="box-generic"></rect>  <rect fill="white" stroke="gray" x="972" y="-1300" width="140" height="49" rx="4" ry="4" class="box-generic"></rect>  <text x="816" y="-1500" width="100" class="box-generic"><tspan x="816" dy="20">Mitchel</tspan><tspan x="816" dy="20">Resnick</tspan></text>  <text x="181" y="-200" width="100" class="box-generic"><tspan x="181" dy="20">Walter</tspan><tspan x="181" dy="20">Taylor</tspan></text>  <text x="977" y="-1050" width="100" class="box-generic"><tspan x="977" dy="20">Norman</tspan><tspan x="977" dy="20">Earl</tspan><tspan x="977" dy="20">Steenrod</tspan></text>  <text x="178" y="-250" width="100" class="box-generic"><tspan x="178" dy="20">Stephen</tspan><tspan x="178" dy="20">Whisson</tspan></text>  <text x="174" y="-400" width="100" class="box-generic"><tspan x="174" dy="20">Adam</tspan><tspan x="174" dy="20">Sedgwick</tspan></text>  <text x="17" y="-300" width="100" class="box-generic"><tspan x="17" dy="20">John</tspan><tspan x="17" dy="20">Cranke</tspan></text>  <text x="179" y="-100" width="100" class="box-generic"><tspan x="179" dy="20">Roger</tspan><tspan x="179" dy="20">Cotes</tspan></text>  <text x="335" y="-600" width="100" class="box-generic"><tspan x="335" dy="20">Andrew</tspan><tspan x="335" dy="20">Russell</tspan><tspan x="335" dy="20">Forsyth</tspan></text>  <text x="661" y="-850" width="100" class="box-generic"><tspan x="661" dy="20">G.</tspan><tspan x="661" dy="20">H.</tspan><tspan x="661" dy="20">(Godfrey</tspan><tspan x="661" dy="20">Harold)</tspan><tspan x="661" dy="20">Hardy</tspan></text>  <text x="818" y="-1450" width="100" class="box-generic"><tspan x="818" dy="20">Seymour</tspan><tspan x="818" dy="20">Aubrey</tspan><tspan x="818" dy="20">Papert</tspan></text>  <text x="178" y="-150" width="100" class="box-generic"><tspan x="178" dy="20">Robert</tspan><tspan x="178" dy="20">Smith</tspan></text>  <text x="1140" y="-700" width="100" class="box-generic"><tspan x="1140" dy="20">Otto</tspan><tspan x="1140" dy="20">Hesse</tspan></text>  <text x="1141" y="-400" width="100" class="box-generic"><tspan x="1141" dy="20">Johann</tspan><tspan x="1141" dy="20">Tobias</tspan><tspan x="1141" dy="20">Mayer</tspan></text>  <text x="975" y="-100" width="100" class="box-generic"><tspan x="975" dy="20">Christian</tspan><tspan x="975" dy="20">August</tspan><tspan x="975" dy="20">Hausen</tspan></text>  <text x="1139" y="-800" width="100" class="box-generic"><tspan x="1139" dy="20">Carl</tspan><tspan x="1139" dy="20">Gottfried</tspan><tspan x="1139" dy="20">Neumann</tspan></text>  <text x="336" y="-450" width="100" class="box-generic"><tspan x="336" dy="20">William</tspan><tspan x="336" dy="20">Hopkins</tspan></text>  <text x="343" y="-700" width="100" class="box-generic"><tspan x="343" dy="20">Edmund</tspan><tspan x="343" dy="20">Taylor</tspan><tspan x="343" dy="20">Whittaker</tspan></text>  <text x="22" y="-350" width="100" class="box-generic"><tspan x="22" dy="20">Thomas</tspan><tspan x="22" dy="20">Jones</tspan></text>  <text x="341" y="-350" width="100" class="box-generic"><tspan x="341" dy="20">John</tspan><tspan x="341" dy="20">Dawson</tspan></text>  <text x="657" y="-600" width="100" class="box-generic"><tspan x="657" dy="20">George</tspan><tspan x="657" dy="20">Howard</tspan><tspan x="657" dy="20">Darwin</tspan></text>  <text x="983" y="-300" width="100" class="box-generic"><tspan x="983" dy="20">Georg</tspan><tspan x="983" dy="20">Christoph</tspan><tspan x="983" dy="20">Lichtenberg</tspan></text>  <text x="977" y="-600" width="100" class="box-generic"><tspan x="977" dy="20">Carl</tspan><tspan x="977" dy="20">Gustav</tspan><tspan x="977" dy="20">Jacob</tspan><tspan x="977" dy="20">Jacobi</tspan></text>  <text x="816" y="-700" width="100" class="box-generic"><tspan x="816" dy="20">Augustus</tspan><tspan x="816" dy="20">Edward</tspan><tspan x="816" dy="20">Hough</tspan><tspan x="816" dy="20">Love</tspan></text>  <text x="974" y="-800" width="100" class="box-generic"><tspan x="974" dy="20">Wilhelm</tspan><tspan x="974" dy="20">Scheibner</tspan></text>  <text x="818" y="-1350" width="100" class="box-generic"><tspan x="818" dy="20">Frank</tspan><tspan x="818" dy="20">Smithies</tspan></text>  <text x="981" y="-1250" width="100" class="box-generic"><tspan x="981" dy="20">John</tspan><tspan x="981" dy="20">Coleman</tspan><tspan x="981" dy="20">Moore</tspan></text>  <text x="341" y="-500" width="100" class="box-generic"><tspan x="341" dy="20">Arthur</tspan><tspan x="341" dy="20">Cayley</tspan></text>  <text x="495" y="-50" width="100" class="box-generic"><tspan x="495" dy="20">Henry</tspan><tspan x="495" dy="20">Bracken</tspan></text>  <text x="334" y="-50" width="100" class="box-generic"><tspan x="334" dy="20">Edward</tspan><tspan x="334" dy="20">Waring</tspan></text>  <text x="1302" y="-700" width="100" class="box-generic"><tspan x="1302" dy="20">Friedrich</tspan><tspan x="1302" dy="20">Julius</tspan><tspan x="1302" dy="20">Richelot</tspan></text>  <text x="175" y="-50" width="100" class="box-generic"><tspan x="175" dy="20">Isaac</tspan><tspan x="175" dy="20">Newton</tspan></text>  <text x="975" y="-400" width="100" class="box-generic"><tspan x="975" dy="20">Bernhard</tspan><tspan x="975" dy="20">Friedrich</tspan><tspan x="975" dy="20">Thibaut</tspan></text>  <text x="974" y="-900" width="100" class="box-generic"><tspan x="974" dy="20">William</tspan><tspan x="974" dy="20">Edward</tspan><tspan x="974" dy="20">Story</tspan></text>  <text x="977" y="-1450" width="100" class="box-generic"><tspan x="977" dy="20">Harold</tspan><tspan x="977" dy="20">Abelson</tspan></text>  <text x="983" y="-1400" width="100" class="box-generic"><tspan x="983" dy="20">Dennis</tspan><tspan x="983" dy="20">Parnell</tspan><tspan x="983" dy="20">Sullivan</tspan></text>  <text x="19" y="0" width="100" class="base"><tspan x="19" dy="20"></tspan></text>  <text x="974" y="-200" width="100" class="box-generic"><tspan x="974" dy="20">Abraham</tspan><tspan x="974" dy="20">Gotthelf</tspan><tspan x="974" dy="20">Kästner</tspan></text>  <text x="976" y="-500" width="100" class="box-generic"><tspan x="976" dy="20">Enno</tspan><tspan x="976" dy="20">Heeren</tspan><tspan x="976" dy="20">Dirksen</tspan></text>  <text x="980" y="-950" width="100" class="box-generic"><tspan x="980" dy="20">Solomon</tspan><tspan x="980" dy="20">Lefschetz</tspan></text>  <text x="977" y="-1150" width="100" class="box-generic"><tspan x="977" dy="20">George</tspan><tspan x="977" dy="20">William</tspan><tspan x="977" dy="20">Whitehead,</tspan><tspan x="977" dy="20">Jr.</tspan></text>  <text x="180" y="-300" width="100" class="box-generic"><tspan x="180" dy="20">Thomas</tspan><tspan x="180" dy="20">Postlethwaite</tspan></text>  <text x="976" y="-1300" width="100" class="box-generic"><tspan x="976" dy="20">William</tspan><tspan x="976" dy="20">Browder</tspan></text></svg>
