<svg viewBox="5 -1505 1439 1560" xmlns="http://www.w3.org/2000/svg">
        <style>
        rect {
            stroke: hsl(0, 100%, 80%);
            fill: hsl(0, 100%, 90%);
        }
        rect.red {
            stroke: hsl(0, 100%, 80%);
            fill: hsl(0, 100%, 90%);
        }
        rect.yellow {
            stroke: hsl(60, 100%, 80%);
            fill: hsl(60, 100%, 90%);
        }
        rect.green {
            stroke: hsl(120, 100%, 80%);
            fill: hsl(120, 100%, 90%);
        }
        rect.blue {
            stroke: hsl(180, 100%, 80%);
            fill: hsl(180, 100%, 90%);
        }
        rect.purple {
            stroke: hsl(240, 100%, 80%);
            fill: hsl(240, 100%, 90%);
        }
        rect.pink {
            stroke: hsl(300, 100%, 80%);
            fill: hsl(300, 100%, 90%);
        }

        rect.base {
            stroke: hsl(60, 100%, 80%);
            fill: hsl(60, 100%, 90%);
        }
        text {
            font-family: Garamond, sans-serif;
            font-size: 14pt;
        }
        
        </style>
          <rect fill="white" stroke="gray" x="814" y="-1500" width="305" height="49" rx="4" ry="4" class="box-generic"></rect>  <rect fill="white" stroke="gray" x="171" y="-200" width="139" height="49" rx="4" ry="4" class="box-generic"></rect>  <rect fill="white" stroke="gray" x="973" y="-1050" width="146" height="99" rx="4" ry="4" class="box-generic"></rect>  <rect fill="white" stroke="gray" x="173" y="-250" width="137" height="49" rx="4" ry="4" class="box-generic"></rect>  <rect fill="white" stroke="gray" x="176" y="-400" width="296" height="49" rx="4" ry="4" class="box-generic"></rect>  <rect fill="white" stroke="gray" x="17" y="-300" width="135" height="299" rx="4" ry="4" class="box-generic"></rect>  <rect fill="white" stroke="gray" x="173" y="-100" width="141" height="49" rx="4" ry="4" class="box-generic"></rect>  <rect fill="white" stroke="gray" x="335" y="-600" width="139" height="99" rx="4" ry="4" class="box-generic"></rect>  <rect fill="white" stroke="gray" x="658" y="-850" width="299" height="149" rx="4" ry="4" class="box-generic"></rect>  <rect fill="white" stroke="gray" x="816" y="-1450" width="140" height="99" rx="4" ry="4" class="box-generic"></rect>  <rect fill="white" stroke="gray" x="177" y="-150" width="139" height="49" rx="4" ry="4" class="box-generic"></rect>  <rect fill="white" stroke="gray" x="1134" y="-700" width="137" height="99" rx="4" ry="4" class="box-generic"></rect>  <rect fill="white" stroke="gray" x="1138" y="-400" width="136" height="99" rx="4" ry="4" class="box-generic"></rect>  <rect fill="white" stroke="gray" x="975" y="-100" width="139" height="99" rx="4" ry="4" class="box-generic"></rect>  <rect fill="white" stroke="gray" x="1134" y="-800" width="299" height="99" rx="4" ry="4" class="box-generic"></rect>  <rect fill="white" stroke="gray" x="335" y="-450" width="142" height="49" rx="4" ry="4" class="box-generic"></rect>  <rect fill="white" stroke="gray" x="335" y="-700" width="458" height="99" rx="4" ry="4" class="box-generic"></rect>  <rect fill="white" stroke="gray" x="19" y="-350" width="298" height="49" rx="4" ry="4" class="box-generic"></rect>  <rect fill="white" stroke="gray" x="336" y="-350" width="298" height="299" rx="4" ry="4" class="box-generic"></rect>  <rect fill="white" stroke="gray" x="652" y="-600" width="144" height="599" rx="4" ry="4" class="box-generic"></rect>  <rect fill="white" stroke="gray" x="979" y="-300" width="294" height="99" rx="4" ry="4" class="box-generic"></rect>  <rect fill="white" stroke="gray" x="975" y="-600" width="464" height="99" rx="4" ry="4" class="box-generic"></rect>  <rect fill="white" stroke="gray" x="812" y="-700" width="139" height="699" rx="4" ry="4" class="box-generic"></rect>  <rect fill="white" stroke="gray" x="970" y="-800" width="146" height="199" rx="4" ry="4" class="box-generic"></rect>  <rect fill="white" stroke="gray" x="811" y="-1350" width="141" height="499" rx="4" ry="4" class="box-generic"></rect>  <rect fill="white" stroke="gray" x="970" y="-1250" width="149" height="99" rx="4" ry="4" class="box-generic"></rect>  <rect fill="white" stroke="gray" x="335" y="-500" width="144" height="49" rx="4" ry="4" class="box-generic"></rect>  <rect fill="white" stroke="gray" x="499" y="-50" width="136" height="49" rx="4" ry="4" class="box-generic"></rect>  <rect fill="white" stroke="gray" x="330" y="-50" width="145" height="49" rx="4" ry="4" class="box-generic"></rect>  <rect fill="white" stroke="gray" x="1297" y="-700" width="136" height="99" rx="4" ry="4" class="box-generic"></rect>  <rect fill="white" stroke="gray" x="172" y="-50" width="139" height="49" rx="4" ry="4" class="box-generic"></rect>  <rect fill="white" stroke="gray" x="970" y="-400" width="148" height="99" rx="4" ry="4" class="box-generic"></rect>  <rect fill="white" stroke="gray" x="979" y="-900" width="294" height="99" rx="4" ry="4" class="box-generic"></rect>  <rect fill="white" stroke="gray" x="970" y="-1450" width="144" height="49" rx="4" ry="4" class="box-generic"></rect>  <rect fill="white" stroke="gray" x="971" y="-1400" width="143" height="99" rx="4" ry="4" class="box-generic"></rect>  <rect fill="white" stroke="gray" x="10" y="0" width="1105" height="49" rx="4" ry="4" class="base"></rect>  <rect fill="white" stroke="gray" x="973" y="-200" width="143" height="99" rx="4" ry="4" class="box-generic"></rect>  <rect fill="white" stroke="gray" x="970" y="-500" width="308" height="99" rx="4" ry="4" class="box-generic"></rect>  <rect fill="white" stroke="gray" x="975" y="-950" width="136" height="49" rx="4" ry="4" class="box-generic"></rect>  <rect fill="white" stroke="gray" x="971" y="-1150" width="145" height="99" rx="4" ry="4" class="box-generic"></rect>  <rect fill="white" stroke="gray" x="172" y="-300" width="147" height="49" rx="4" ry="4" class="box-generic"></rect>  <rect fill="white" stroke="gray" x="975" y="-1300" width="141" height="49" rx="4" ry="4" class="box-generic"></rect>  <text x="818" y="-1500" width="100" class="box-generic"><tspan x="818" dy="20">Mitchel</tspan><tspan x="818" dy="20">Resnick</tspan></text>  <text x="175" y="-200" width="100" class="box-generic"><tspan x="175" dy="20">Walter</tspan><tspan x="175" dy="20">Taylor</tspan></text>  <text x="977" y="-1050" width="100" class="box-generic"><tspan x="977" dy="20">Norman</tspan><tspan x="977" dy="20">Earl</tspan><tspan x="977" dy="20">Steenrod</tspan></text>  <text x="177" y="-250" width="100" class="box-generic"><tspan x="177" dy="20">Stephen</tspan><tspan x="177" dy="20">Whisson</tspan></text>  <text x="180" y="-400" width="100" class="box-generic"><tspan x="180" dy="20">Adam</tspan><tspan x="180" dy="20">Sedgwick</tspan></text>  <text x="21" y="-300" width="100" class="box-generic"><tspan x="21" dy="20">John</tspan><tspan x="21" dy="20">Cranke</tspan></text>  <text x="177" y="-100" width="100" class="box-generic"><tspan x="177" dy="20">Roger</tspan><tspan x="177" dy="20">Cotes</tspan></text>  <text x="339" y="-600" width="100" class="box-generic"><tspan x="339" dy="20">Andrew</tspan><tspan x="339" dy="20">Russell</tspan><tspan x="339" dy="20">Forsyth</tspan></text>  <text x="662" y="-850" width="100" class="box-generic"><tspan x="662" dy="20">G.</tspan><tspan x="662" dy="20">H.</tspan><tspan x="662" dy="20">(Godfrey</tspan><tspan x="662" dy="20">Harold)</tspan><tspan x="662" dy="20">Hardy</tspan></text>  <text x="820" y="-1450" width="100" class="box-generic"><tspan x="820" dy="20">Seymour</tspan><tspan x="820" dy="20">Aubrey</tspan><tspan x="820" dy="20">Papert</tspan></text>  <text x="181" y="-150" width="100" class="box-generic"><tspan x="181" dy="20">Robert</tspan><tspan x="181" dy="20">Smith</tspan></text>  <text x="1138" y="-700" width="100" class="box-generic"><tspan x="1138" dy="20">Otto</tspan><tspan x="1138" dy="20">Hesse</tspan></text>  <text x="1142" y="-400" width="100" class="box-generic"><tspan x="1142" dy="20">Johann</tspan><tspan x="1142" dy="20">Tobias</tspan><tspan x="1142" dy="20">Mayer</tspan></text>  <text x="979" y="-100" width="100" class="box-generic"><tspan x="979" dy="20">Christian</tspan><tspan x="979" dy="20">August</tspan><tspan x="979" dy="20">Hausen</tspan></text>  <text x="1138" y="-800" width="100" class="box-generic"><tspan x="1138" dy="20">Carl</tspan><tspan x="1138" dy="20">Gottfried</tspan><tspan x="1138" dy="20">Neumann</tspan></text>  <text x="339" y="-450" width="100" class="box-generic"><tspan x="339" dy="20">William</tspan><tspan x="339" dy="20">Hopkins</tspan></text>  <text x="339" y="-700" width="100" class="box-generic"><tspan x="339" dy="20">Edmund</tspan><tspan x="339" dy="20">Taylor</tspan><tspan x="339" dy="20">Whittaker</tspan></text>  <text x="23" y="-350" width="100" class="box-generic"><tspan x="23" dy="20">Thomas</tspan><tspan x="23" dy="20">Jones</tspan></text>  <text x="340" y="-350" width="100" class="box-generic"><tspan x="340" dy="20">John</tspan><tspan x="340" dy="20">Dawson</tspan></text>  <text x="656" y="-600" width="100" class="box-generic"><tspan x="656" dy="20">George</tspan><tspan x="656" dy="20">Howard</tspan><tspan x="656" dy="20">Darwin</tspan></text>  <text x="983" y="-300" width="100" class="box-generic"><tspan x="983" dy="20">Georg</tspan><tspan x="983" dy="20">Christoph</tspan><tspan x="983" dy="20">Lichtenberg</tspan></text>  <text x="979" y="-600" width="100" class="box-generic"><tspan x="979" dy="20">Carl</tspan><tspan x="979" dy="20">Gustav</tspan><tspan x="979" dy="20">Jacob</tspan><tspan x="979" dy="20">Jacobi</tspan></text>  <text x="816" y="-700" width="100" class="box-generic"><tspan x="816" dy="20">Augustus</tspan><tspan x="816" dy="20">Edward</tspan><tspan x="816" dy="20">Hough</tspan><tspan x="816" dy="20">Love</tspan></text>  <text x="974" y="-800" width="100" class="box-generic"><tspan x="974" dy="20">Wilhelm</tspan><tspan x="974" dy="20">Scheibner</tspan></text>  <text x="815" y="-1350" width="100" class="box-generic"><tspan x="815" dy="20">Frank</tspan><tspan x="815" dy="20">Smithies</tspan></text>  <text x="974" y="-1250" width="100" class="box-generic"><tspan x="974" dy="20">John</tspan><tspan x="974" dy="20">Coleman</tspan><tspan x="974" dy="20">Moore</tspan></text>  <text x="339" y="-500" width="100" class="box-generic"><tspan x="339" dy="20">Arthur</tspan><tspan x="339" dy="20">Cayley</tspan></text>  <text x="503" y="-50" width="100" class="box-generic"><tspan x="503" dy="20">Henry</tspan><tspan x="503" dy="20">Bracken</tspan></text>  <text x="334" y="-50" width="100" class="box-generic"><tspan x="334" dy="20">Edward</tspan><tspan x="334" dy="20">Waring</tspan></text>  <text x="1301" y="-700" width="100" class="box-generic"><tspan x="1301" dy="20">Friedrich</tspan><tspan x="1301" dy="20">Julius</tspan><tspan x="1301" dy="20">Richelot</tspan></text>  <text x="176" y="-50" width="100" class="box-generic"><tspan x="176" dy="20">Isaac</tspan><tspan x="176" dy="20">Newton</tspan></text>  <text x="974" y="-400" width="100" class="box-generic"><tspan x="974" dy="20">Bernhard</tspan><tspan x="974" dy="20">Friedrich</tspan><tspan x="974" dy="20">Thibaut</tspan></text>  <text x="983" y="-900" width="100" class="box-generic"><tspan x="983" dy="20">William</tspan><tspan x="983" dy="20">Edward</tspan><tspan x="983" dy="20">Story</tspan></text>  <text x="974" y="-1450" width="100" class="box-generic"><tspan x="974" dy="20">Harold</tspan><tspan x="974" dy="20">Abelson</tspan></text>  <text x="975" y="-1400" width="100" class="box-generic"><tspan x="975" dy="20">Dennis</tspan><tspan x="975" dy="20">Parnell</tspan><tspan x="975" dy="20">Sullivan</tspan></text>  <text x="14" y="0" width="100" class="base"><tspan x="14" dy="20"></tspan></text>  <text x="977" y="-200" width="100" class="box-generic"><tspan x="977" dy="20">Abraham</tspan><tspan x="977" dy="20">Gotthelf</tspan><tspan x="977" dy="20">Kästner</tspan></text>  <text x="974" y="-500" width="100" class="box-generic"><tspan x="974" dy="20">Enno</tspan><tspan x="974" dy="20">Heeren</tspan><tspan x="974" dy="20">Dirksen</tspan></text>  <text x="979" y="-950" width="100" class="box-generic"><tspan x="979" dy="20">Solomon</tspan><tspan x="979" dy="20">Lefschetz</tspan></text>  <text x="975" y="-1150" width="100" class="box-generic"><tspan x="975" dy="20">George</tspan><tspan x="975" dy="20">William</tspan><tspan x="975" dy="20">Whitehead,</tspan><tspan x="975" dy="20">Jr.</tspan></text>  <text x="176" y="-300" width="100" class="box-generic"><tspan x="176" dy="20">Thomas</tspan><tspan x="176" dy="20">Postlethwaite</tspan></text>  <text x="979" y="-1300" width="100" class="box-generic"><tspan x="979" dy="20">William</tspan><tspan x="979" dy="20">Browder</tspan></text></svg>
