<svg viewBox="5 -1155 799 1210" xmlns="http://www.w3.org/2000/svg">
        <style>
        rect {
            stroke: hsl(0, 100%, 80%);
            fill: hsl(0, 100%, 90%);
        }
        rect.red {
            stroke: hsl(0, 100%, 80%);
            fill: hsl(0, 100%, 90%);
        }
        rect.yellow {
            stroke: hsl(60, 100%, 80%);
            fill: hsl(60, 100%, 90%);
        }
        rect.green {
            stroke: hsl(120, 100%, 80%);
            fill: hsl(120, 100%, 90%);
        }
        rect.blue {
            stroke: hsl(180, 100%, 80%);
            fill: hsl(180, 100%, 90%);
        }
        rect.purple {
            stroke: hsl(240, 100%, 80%);
            fill: hsl(240, 100%, 90%);
        }
        rect.pink {
            stroke: hsl(300, 100%, 80%);
            fill: hsl(300, 100%, 90%);
        }

        rect.base {
            stroke: hsl(60, 100%, 80%);
            fill: hsl(60, 100%, 90%);
        }
        text {
            font-family: Garamond, sans-serif;
            font-size: 14pt;
        }
        
        </style>
          <rect fill="white" stroke="gray" x="650" y="-1100" width="147" height="299" rx="4" ry="4" class="box-generic"></rect>  <rect fill="white" stroke="gray" x="19" y="-150" width="771" height="99" rx="4" ry="4" class="box-generic"></rect>  <rect fill="white" stroke="gray" x="18" y="-450" width="773" height="49" rx="4" ry="4" class="box-generic"></rect>  <rect fill="white" stroke="gray" x="10" y="-1000" width="623" height="49" rx="4" ry="4" class="box-generic"></rect>  <rect fill="white" stroke="gray" x="14" y="-750" width="140" height="199" rx="4" ry="4" class="box-generic"></rect>  <rect fill="white" stroke="gray" x="493" y="-950" width="141" height="149" rx="4" ry="4" class="box-generic"></rect>  <rect fill="white" stroke="gray" x="14" y="-500" width="785" height="49" rx="4" ry="4" class="box-generic"></rect>  <rect fill="white" stroke="gray" x="13" y="-1050" width="622" height="49" rx="4" ry="4" class="box-generic"></rect>  <rect fill="white" stroke="gray" x="335" y="-650" width="457" height="99" rx="4" ry="4" class="box-generic"></rect>  <rect fill="white" stroke="gray" x="12" y="-400" width="778" height="99" rx="4" ry="4" class="box-generic"></rect>  <rect fill="white" stroke="gray" x="177" y="-700" width="616" height="49" rx="4" ry="4" class="box-generic"></rect>  <rect fill="white" stroke="gray" x="15" y="0" width="780" height="49" rx="4" ry="4" class="base"></rect>  <rect fill="white" stroke="gray" x="10" y="-550" width="789" height="49" rx="4" ry="4" class="box-generic"></rect>  <rect fill="white" stroke="gray" x="14" y="-300" width="785" height="99" rx="4" ry="4" class="box-generic"></rect>  <rect fill="white" stroke="gray" x="178" y="-600" width="137" height="49" rx="4" ry="4" class="box-generic"></rect>  <rect fill="white" stroke="gray" x="14" y="-50" width="782" height="49" rx="4" ry="4" class="box-generic"></rect>  <rect fill="white" stroke="gray" x="13" y="-1150" width="782" height="49" rx="4" ry="4" class="box-generic"></rect>  <rect fill="white" stroke="gray" x="16" y="-800" width="783" height="49" rx="4" ry="4" class="box-generic"></rect>  <rect fill="white" stroke="gray" x="11" y="-200" width="782" height="49" rx="4" ry="4" class="box-generic"></rect>  <rect fill="white" stroke="gray" x="11" y="-900" width="465" height="99" rx="4" ry="4" class="box-generic"></rect>  <text x="654" y="-1100" width="100" class="box-generic"><tspan x="654" dy="20">Lexing and</tspan><tspan x="654" dy="20">Parsing</tspan><tspan x="654" dy="20">in Coq</tspan></text>  <text x="23" y="-150" width="100" class="box-generic"><tspan x="23" dy="20">Functional</tspan><tspan x="23" dy="20">Programming</tspan><tspan x="23" dy="20">in Coq</tspan></text>  <text x="22" y="-450" width="100" class="box-generic"><tspan x="22" dy="20">More Basic</tspan><tspan x="22" dy="20">Tactics</tspan></text>  <text x="14" y="-1000" width="100" class="box-generic"><tspan x="14" dy="20">Postscript</tspan></text>  <text x="18" y="-750" width="100" class="box-generic"><tspan x="18" dy="20">Total and</tspan><tspan x="18" dy="20">Partial Maps</tspan></text>  <text x="497" y="-950" width="100" class="box-generic"><tspan x="497" dy="20">More</tspan><tspan x="497" dy="20">Automation</tspan></text>  <text x="18" y="-500" width="100" class="box-generic"><tspan x="18" dy="20">Logic in Coq</tspan></text>  <text x="17" y="-1050" width="100" class="box-generic"><tspan x="17" dy="20">Bibliography</tspan></text>  <text x="339" y="-650" width="100" class="box-generic"><tspan x="339" dy="20">The</tspan><tspan x="339" dy="20">Curry-Howard</tspan><tspan x="339" dy="20">Correspondence</tspan></text>  <text x="16" y="-400" width="100" class="box-generic"><tspan x="16" dy="20">Polymorphism</tspan><tspan x="16" dy="20">and</tspan><tspan x="16" dy="20">Higher-Order</tspan><tspan x="16" dy="20">Functions</tspan></text>  <text x="181" y="-700" width="100" class="box-generic"><tspan x="181" dy="20">More on</tspan><tspan x="181" dy="20">Induction</tspan></text>  <text x="19" y="0" width="100" class="base"><tspan x="19" dy="20"></tspan></text>  <text x="14" y="-550" width="100" class="box-generic"><tspan x="14" dy="20">Inductively Defined Propositions</tspan></text>  <text x="18" y="-300" width="100" class="box-generic"><tspan x="18" dy="20">Working with</tspan><tspan x="18" dy="20">Structured</tspan><tspan x="18" dy="20">Data</tspan></text>  <text x="182" y="-600" width="100" class="box-generic"><tspan x="182" dy="20">Properties of</tspan><tspan x="182" dy="20">Relations</tspan></text>  <text x="18" y="-50" width="100" class="box-generic"><tspan x="18" dy="20">Preface</tspan></text>  <text x="17" y="-1150" width="100" class="box-generic"><tspan x="17" dy="20">Extracting</tspan><tspan x="17" dy="20">ML from Coq</tspan></text>  <text x="20" y="-800" width="100" class="box-generic"><tspan x="20" dy="20">Simple Imperative Programs</tspan></text>  <text x="15" y="-200" width="100" class="box-generic"><tspan x="15" dy="20">Proof by</tspan><tspan x="15" dy="20">Induction</tspan></text>  <text x="15" y="-900" width="100" class="box-generic"><tspan x="15" dy="20">An Evaluation</tspan><tspan x="15" dy="20">Function</tspan><tspan x="15" dy="20">for Imp</tspan></text></svg>
