<svg viewBox="7 -155 1117 210" xmlns="http://www.w3.org/2000/svg">
        <style>
        rect {
            stroke: hsl(0, 100%, 80%);
            fill: hsl(0, 100%, 90%);
        }
        rect.red {
            stroke: hsl(0, 100%, 80%);
            fill: hsl(0, 100%, 90%);
        }
        rect.yellow {
            stroke: hsl(60, 100%, 80%);
            fill: hsl(60, 100%, 90%);
        }
        rect.green {
            stroke: hsl(120, 100%, 80%);
            fill: hsl(120, 100%, 90%);
        }
        rect.blue {
            stroke: hsl(180, 100%, 80%);
            fill: hsl(180, 100%, 90%);
        }
        rect.purple {
            stroke: hsl(240, 100%, 80%);
            fill: hsl(240, 100%, 90%);
        }
        rect.pink {
            stroke: hsl(300, 100%, 80%);
            fill: hsl(300, 100%, 90%);
        }

        rect.base {
            stroke: hsl(60, 100%, 80%);
            fill: hsl(60, 100%, 90%);
        }
        text {
            font-family: Garamond, sans-serif;
            font-size: 14pt;
        }
        
        </style>
          <rect fill="white" stroke="gray" x="658" y="-100" width="132" height="99" rx="4" ry="4" class="box-generic"></rect>  <rect fill="white" stroke="gray" x="12" y="-100" width="303" height="49" rx="4" ry="4" class="box-generic"></rect>  <rect fill="white" stroke="gray" x="492" y="-100" width="144" height="99" rx="4" ry="4" class="box-generic"></rect>  <rect fill="white" stroke="gray" x="14" y="-50" width="137" height="49" rx="4" ry="4" class="box-generic"></rect>  <rect fill="white" stroke="gray" x="15" y="0" width="1102" height="49" rx="4" ry="4" class="base"></rect>  <rect fill="white" stroke="gray" x="975" y="-50" width="144" height="49" rx="4" ry="4" class="box-generic"></rect>  <rect fill="white" stroke="gray" x="178" y="-150" width="781" height="49" rx="4" ry="4" class="box-generic"></rect>  <rect fill="white" stroke="gray" x="173" y="-50" width="144" height="49" rx="4" ry="4" class="box-generic"></rect>  <rect fill="white" stroke="gray" x="813" y="-100" width="304" height="49" rx="4" ry="4" class="box-generic"></rect>  <rect fill="white" stroke="gray" x="811" y="-50" width="141" height="49" rx="4" ry="4" class="box-generic"></rect>  <rect fill="white" stroke="gray" x="332" y="-100" width="141" height="99" rx="4" ry="4" class="box-generic"></rect>  <text x="662" y="-100" width="100" class="box-generic"><tspan x="662" dy="20">semver</tspan></text>  <text x="16" y="-100" width="100" class="box-generic"><tspan x="16" dy="20">randexp</tspan></text>  <text x="496" y="-100" width="100" class="box-generic"><tspan x="496" dy="20">railroad</tspan><tspan x="496" dy="20">_diagrams</tspan></text>  <text x="18" y="-50" width="100" class="box-generic"><tspan x="18" dy="20">ret</tspan></text>  <text x="19" y="0" width="100" class="base"><tspan x="19" dy="20"></tspan></text>  <text x="979" y="-50" width="100" class="box-generic"><tspan x="979" dy="20">colors</tspan></text>  <text x="182" y="-150" width="100" class="box-generic"><tspan x="182" dy="20">nearley</tspan></text>  <text x="177" y="-50" width="100" class="box-generic"><tspan x="177" dy="20">discontinuous</tspan><tspan x="177" dy="20">_range</tspan></text>  <text x="817" y="-100" width="100" class="box-generic"><tspan x="817" dy="20">nomnom</tspan></text>  <text x="815" y="-50" width="100" class="box-generic"><tspan x="815" dy="20">underscore</tspan></text>  <text x="336" y="-100" width="100" class="box-generic"><tspan x="336" dy="20">moo</tspan></text></svg>
