<svg viewBox="6 -205 1273 260" xmlns="http://www.w3.org/2000/svg">
        <style>
        rect {
            stroke: hsl(0, 100%, 80%);
            fill: hsl(0, 100%, 90%);
        }
        rect.red {
            stroke: hsl(0, 100%, 80%);
            fill: hsl(0, 100%, 90%);
        }
        rect.yellow {
            stroke: hsl(60, 100%, 80%);
            fill: hsl(60, 100%, 90%);
        }
        rect.green {
            stroke: hsl(120, 100%, 80%);
            fill: hsl(120, 100%, 90%);
        }
        rect.blue {
            stroke: hsl(180, 100%, 80%);
            fill: hsl(180, 100%, 90%);
        }
        rect.purple {
            stroke: hsl(240, 100%, 80%);
            fill: hsl(240, 100%, 90%);
        }
        rect.pink {
            stroke: hsl(300, 100%, 80%);
            fill: hsl(300, 100%, 90%);
        }

        rect.base {
            stroke: hsl(60, 100%, 80%);
            fill: hsl(60, 100%, 90%);
        }
        text {
            font-family: Garamond, sans-serif;
            font-size: 14pt;
        }
        
        </style>
          <rect fill="white" stroke="gray" x="1135" y="-150" width="139" height="149" rx="4" ry="4" class="box-generic"></rect>  <rect fill="white" stroke="gray" x="654" y="-150" width="305" height="99" rx="4" ry="4" class="box-generic"></rect>  <rect fill="white" stroke="gray" x="970" y="-150" width="142" height="149" rx="4" ry="4" class="box-generic"></rect>  <rect fill="white" stroke="gray" x="812" y="-50" width="138" height="49" rx="4" ry="4" class="box-generic"></rect>  <rect fill="white" stroke="gray" x="18" y="0" width="1256" height="49" rx="4" ry="4" class="base"></rect>  <rect fill="white" stroke="gray" x="339" y="-100" width="134" height="99" rx="4" ry="4" class="box-generic"></rect>  <rect fill="white" stroke="gray" x="11" y="-200" width="1263" height="49" rx="4" ry="4" class="box-generic"></rect>  <rect fill="white" stroke="gray" x="494" y="-50" width="297" height="49" rx="4" ry="4" class="box-generic"></rect>  <rect fill="white" stroke="gray" x="171" y="-150" width="464" height="49" rx="4" ry="4" class="box-generic"></rect>  <rect fill="white" stroke="gray" x="176" y="-100" width="134" height="99" rx="4" ry="4" class="box-generic"></rect>  <rect fill="white" stroke="gray" x="16" y="-150" width="141" height="149" rx="4" ry="4" class="box-generic"></rect>  <text x="1139" y="-150" width="100" class="box-generic"><tspan x="1139" dy="20">semver</tspan></text>  <text x="658" y="-150" width="100" class="box-generic"><tspan x="658" dy="20">randexp</tspan></text>  <text x="974" y="-150" width="100" class="box-generic"><tspan x="974" dy="20">railroad</tspan><tspan x="974" dy="20">_diagrams</tspan></text>  <text x="816" y="-50" width="100" class="box-generic"><tspan x="816" dy="20">ret</tspan></text>  <text x="22" y="0" width="100" class="base"><tspan x="22" dy="20"></tspan></text>  <text x="343" y="-100" width="100" class="box-generic"><tspan x="343" dy="20">colors</tspan></text>  <text x="15" y="-200" width="100" class="box-generic"><tspan x="15" dy="20">nearley</tspan></text>  <text x="498" y="-50" width="100" class="box-generic"><tspan x="498" dy="20">discontinuous</tspan><tspan x="498" dy="20">_range</tspan></text>  <text x="175" y="-150" width="100" class="box-generic"><tspan x="175" dy="20">nomnom</tspan></text>  <text x="180" y="-100" width="100" class="box-generic"><tspan x="180" dy="20">underscore</tspan></text>  <text x="20" y="-150" width="100" class="box-generic"><tspan x="20" dy="20">moo</tspan></text></svg>
