<svg viewBox="5 -255 1435 310" xmlns="http://www.w3.org/2000/svg">
        <style>
        rect {
            stroke: hsl(0, 100%, 80%);
            fill: hsl(0, 100%, 90%);
        }
        rect.red {
            stroke: hsl(0, 100%, 80%);
            fill: hsl(0, 100%, 90%);
        }
        rect.yellow {
            stroke: hsl(60, 100%, 80%);
            fill: hsl(60, 100%, 90%);
        }
        rect.green {
            stroke: hsl(120, 100%, 80%);
            fill: hsl(120, 100%, 90%);
        }
        rect.blue {
            stroke: hsl(180, 100%, 80%);
            fill: hsl(180, 100%, 90%);
        }
        rect.purple {
            stroke: hsl(240, 100%, 80%);
            fill: hsl(240, 100%, 90%);
        }
        rect.pink {
            stroke: hsl(300, 100%, 80%);
            fill: hsl(300, 100%, 90%);
        }

        rect.base {
            stroke: hsl(60, 100%, 80%);
            fill: hsl(60, 100%, 90%);
        }
        text {
            font-family: Garamond, sans-serif;
            font-size: 14pt;
        }
        
        </style>
          <rect fill="white" stroke="gray" x="1297" y="-100" width="135" height="49" rx="4" ry="4" class="box-generic"></rect>  <rect fill="white" stroke="gray" x="659" y="-200" width="137" height="49" rx="4" ry="4" class="box-generic"></rect>  <rect fill="white" stroke="gray" x="811" y="-200" width="622" height="99" rx="4" ry="4" class="box-generic"></rect>  <rect fill="white" stroke="gray" x="651" y="-150" width="139" height="49" rx="4" ry="4" class="box-generic"></rect>  <rect fill="white" stroke="gray" x="491" y="-200" width="148" height="199" rx="4" ry="4" class="box-generic"></rect>  <rect fill="white" stroke="gray" x="650" y="-100" width="303" height="49" rx="4" ry="4" class="box-generic"></rect>  <rect fill="white" stroke="gray" x="332" y="-100" width="138" height="99" rx="4" ry="4" class="box-generic"></rect>  <rect fill="white" stroke="gray" x="814" y="-50" width="142" height="49" rx="4" ry="4" class="box-generic"></rect>  <rect fill="white" stroke="gray" x="978" y="-100" width="136" height="99" rx="4" ry="4" class="box-generic"></rect>  <rect fill="white" stroke="gray" x="15" y="0" width="1416" height="49" rx="4" ry="4" class="base"></rect>  <rect fill="white" stroke="gray" x="19" y="-100" width="140" height="49" rx="4" ry="4" class="box-generic"></rect>  <rect fill="white" stroke="gray" x="1137" y="-100" width="135" height="99" rx="4" ry="4" class="box-generic"></rect>  <rect fill="white" stroke="gray" x="335" y="-250" width="616" height="49" rx="4" ry="4" class="box-generic"></rect>  <rect fill="white" stroke="gray" x="1291" y="-50" width="144" height="49" rx="4" ry="4" class="box-generic"></rect>  <rect fill="white" stroke="gray" x="175" y="-100" width="140" height="99" rx="4" ry="4" class="box-generic"></rect>  <rect fill="white" stroke="gray" x="10" y="-50" width="145" height="49" rx="4" ry="4" class="box-generic"></rect>  <rect fill="white" stroke="gray" x="16" y="-200" width="457" height="99" rx="4" ry="4" class="box-generic"></rect>  <text x="1301" y="-100" width="100" class="box-generic"><tspan x="1301" dy="20">freetype</tspan></text>  <text x="663" y="-200" width="100" class="box-generic"><tspan x="663" dy="20">ghostscript</tspan></text>  <text x="815" y="-200" width="100" class="box-generic"><tspan x="815" dy="20">imagemagick</tspan></text>  <text x="655" y="-150" width="100" class="box-generic"><tspan x="655" dy="20">little-cms2</tspan></text>  <text x="495" y="-200" width="100" class="box-generic"><tspan x="495" dy="20">exiftool</tspan></text>  <text x="654" y="-100" width="100" class="box-generic"><tspan x="654" dy="20">libtiff</tspan></text>  <text x="336" y="-100" width="100" class="box-generic"><tspan x="336" dy="20">openssl</tspan></text>  <text x="818" y="-50" width="100" class="box-generic"><tspan x="818" dy="20">jpeg</tspan></text>  <text x="982" y="-100" width="100" class="box-generic"><tspan x="982" dy="20">xz</tspan></text>  <text x="19" y="0" width="100" class="base"><tspan x="19" dy="20"></tspan></text>  <text x="23" y="-100" width="100" class="box-generic"><tspan x="23" dy="20">sqlite</tspan></text>  <text x="1141" y="-100" width="100" class="box-generic"><tspan x="1141" dy="20">libtool</tspan></text>  <text x="339" y="-250" width="100" class="box-generic"><tspan x="339" dy="20">pdf-redact-tools</tspan></text>  <text x="1295" y="-50" width="100" class="box-generic"><tspan x="1295" dy="20">libpng</tspan></text>  <text x="179" y="-100" width="100" class="box-generic"><tspan x="179" dy="20">gdbm</tspan></text>  <text x="14" y="-50" width="100" class="box-generic"><tspan x="14" dy="20">readline</tspan></text>  <text x="20" y="-200" width="100" class="box-generic"><tspan x="20" dy="20">python@2</tspan></text></svg>
