<svg viewBox="7 -405 1757 460" xmlns="http://www.w3.org/2000/svg">
        <style>
        rect {
            stroke: hsl(0, 100%, 80%);
            fill: hsl(0, 100%, 90%);
        }
        rect.red {
            stroke: hsl(0, 100%, 80%);
            fill: hsl(0, 100%, 90%);
        }
        rect.yellow {
            stroke: hsl(60, 100%, 80%);
            fill: hsl(60, 100%, 90%);
        }
        rect.green {
            stroke: hsl(120, 100%, 80%);
            fill: hsl(120, 100%, 90%);
        }
        rect.blue {
            stroke: hsl(180, 100%, 80%);
            fill: hsl(180, 100%, 90%);
        }
        rect.purple {
            stroke: hsl(240, 100%, 80%);
            fill: hsl(240, 100%, 90%);
        }
        rect.pink {
            stroke: hsl(300, 100%, 80%);
            fill: hsl(300, 100%, 90%);
        }

        rect.base {
            stroke: hsl(60, 100%, 80%);
            fill: hsl(60, 100%, 90%);
        }
        text {
            font-family: Garamond, sans-serif;
            font-size: 14pt;
        }
        
        </style>
          <rect fill="white" stroke="gray" x="813" y="-250" width="297" height="49" rx="4" ry="4" class="box-generic"></rect>  <rect fill="white" stroke="gray" x="1617" y="-350" width="133" height="49" rx="4" ry="4" class="box-generic"></rect>  <rect fill="white" stroke="gray" x="813" y="-350" width="781" height="99" rx="4" ry="4" class="box-generic"></rect>  <rect fill="white" stroke="gray" x="1611" y="-300" width="148" height="49" rx="4" ry="4" class="box-generic"></rect>  <rect fill="white" stroke="gray" x="12" y="-350" width="139" height="349" rx="4" ry="4" class="box-generic"></rect>  <rect fill="white" stroke="gray" x="1451" y="-250" width="304" height="99" rx="4" ry="4" class="box-generic"></rect>  <rect fill="white" stroke="gray" x="651" y="-100" width="300" height="99" rx="4" ry="4" class="box-generic"></rect>  <rect fill="white" stroke="gray" x="1458" y="-150" width="298" height="149" rx="4" ry="4" class="box-generic"></rect>  <rect fill="white" stroke="gray" x="1296" y="-250" width="143" height="249" rx="4" ry="4" class="box-generic"></rect>  <rect fill="white" stroke="gray" x="14" y="0" width="1741" height="49" rx="4" ry="4" class="base"></rect>  <rect fill="white" stroke="gray" x="175" y="-100" width="301" height="49" rx="4" ry="4" class="box-generic"></rect>  <rect fill="white" stroke="gray" x="1130" y="-250" width="141" height="249" rx="4" ry="4" class="box-generic"></rect>  <rect fill="white" stroke="gray" x="17" y="-400" width="1733" height="49" rx="4" ry="4" class="box-generic"></rect>  <rect fill="white" stroke="gray" x="975" y="-200" width="143" height="199" rx="4" ry="4" class="box-generic"></rect>  <rect fill="white" stroke="gray" x="492" y="-100" width="141" height="99" rx="4" ry="4" class="box-generic"></rect>  <rect fill="white" stroke="gray" x="175" y="-50" width="137" height="49" rx="4" ry="4" class="box-generic"></rect>  <rect fill="white" stroke="gray" x="333" y="-350" width="460" height="249" rx="4" ry="4" class="box-generic"></rect>  <text x="817" y="-250" width="100" class="box-generic"><tspan x="817" dy="20">freetype</tspan></text>  <text x="1621" y="-350" width="100" class="box-generic"><tspan x="1621" dy="20">ghostscript</tspan></text>  <text x="817" y="-350" width="100" class="box-generic"><tspan x="817" dy="20">imagemagick</tspan></text>  <text x="1615" y="-300" width="100" class="box-generic"><tspan x="1615" dy="20">little-cms2</tspan></text>  <text x="16" y="-350" width="100" class="box-generic"><tspan x="16" dy="20">exiftool</tspan></text>  <text x="1455" y="-250" width="100" class="box-generic"><tspan x="1455" dy="20">libtiff</tspan></text>  <text x="655" y="-100" width="100" class="box-generic"><tspan x="655" dy="20">openssl</tspan></text>  <text x="1462" y="-150" width="100" class="box-generic"><tspan x="1462" dy="20">jpeg</tspan></text>  <text x="1300" y="-250" width="100" class="box-generic"><tspan x="1300" dy="20">xz</tspan></text>  <text x="18" y="0" width="100" class="base"><tspan x="18" dy="20"></tspan></text>  <text x="179" y="-100" width="100" class="box-generic"><tspan x="179" dy="20">sqlite</tspan></text>  <text x="1134" y="-250" width="100" class="box-generic"><tspan x="1134" dy="20">libtool</tspan></text>  <text x="21" y="-400" width="100" class="box-generic"><tspan x="21" dy="20">pdf-redact-tools</tspan></text>  <text x="979" y="-200" width="100" class="box-generic"><tspan x="979" dy="20">libpng</tspan></text>  <text x="496" y="-100" width="100" class="box-generic"><tspan x="496" dy="20">gdbm</tspan></text>  <text x="179" y="-50" width="100" class="box-generic"><tspan x="179" dy="20">readline</tspan></text>  <text x="337" y="-350" width="100" class="box-generic"><tspan x="337" dy="20">python@2</tspan></text></svg>
